<svg width="54" height="40" fill="none" xmlns="http://www.w3.org/2000/svg"><path d="M4.52 1.806h10.595V39H8.086V8.456H.425l4.096-6.65zM39.933.871c2.713 0 5.048.666 7.003 1.997 1.973 1.332 3.49 3.371 4.552 6.12 1.079 2.73 1.618 6.54 1.618 11.428 0 4.939-.548 8.782-1.643 11.53-1.08 2.747-2.537 4.77-4.375 6.068-1.837 1.281-4.155 1.921-6.953 1.921s-5.15-.648-7.054-1.946c-1.905-1.298-3.397-3.27-4.476-5.917-1.079-2.647-1.618-6.414-1.618-11.302 0-6.827 1.053-11.775 3.16-14.842C32.49 2.556 35.752.87 39.932.87zm.177 6.725a4.825 4.825 0 00-3.186 1.163c-.927.759-1.635 2.074-2.124 3.945-.489 1.871-.733 4.61-.733 8.217 0 4.703.556 7.957 1.668 9.76 1.13 1.787 2.588 2.68 4.375 2.68 1.719 0 3.084-.85 4.096-2.553 1.23-2.057 1.846-5.495 1.846-10.316 0-4.889-.557-8.26-1.67-10.114-1.095-1.854-2.52-2.782-4.272-2.782z" fill="url(#paint0_linear)"/><defs><linearGradient id="paint0_linear" x1="29.5" y1="-13" x2="29.5" y2="43.78" gradientUnits="userSpaceOnUse"><stop stop-color="#F6C94D"/><stop offset="1" stop-color="#DD3A09"/></linearGradient></defs></svg>