<svg width="98" height="70" fill="none" xmlns="http://www.w3.org/2000/svg"><path opacity=".05" d="M23.338.847c4.78 0 8.892 1.173 12.335 3.518 3.474 2.345 6.146 5.937 8.016 10.776 1.9 4.81 2.85 11.52 2.85 20.129 0 8.698-.965 15.467-2.895 20.306-1.9 4.839-4.467 8.401-7.703 10.687-3.236 2.256-7.318 3.385-12.247 3.385-4.928 0-9.069-1.143-12.424-3.43-3.354-2.285-5.982-5.759-7.882-10.42-1.9-4.66-2.85-11.296-2.85-19.905 0-12.024 1.856-20.737 5.567-26.14C10.23 3.816 15.975.847 23.338.847zm.312 11.845c-2.108 0-3.978.683-5.61 2.049-1.634 1.336-2.88 3.651-3.742 6.947-.86 3.295-1.291 8.119-1.291 14.472 0 8.283.98 14.013 2.94 17.19 1.988 3.146 4.556 4.72 7.703 4.72 3.028 0 5.433-1.5 7.214-4.498 2.167-3.622 3.25-9.678 3.25-18.169 0-8.61-.979-14.547-2.938-17.812-1.93-3.266-4.438-4.899-7.526-4.899zm42.282 10.91H53.775c.326-7.065 2.538-12.617 6.635-16.654C64.536 2.88 69.82.847 76.263.847c3.978 0 7.481.846 10.51 2.538 3.057 1.663 5.491 4.082 7.302 7.259 1.84 3.147 2.761 6.353 2.761 9.618 0 3.89-1.113 8.075-3.34 12.558-2.197 4.483-6.234 9.782-12.112 15.898l-7.348 7.748h23.335V68H51.993v-5.967L72.255 41.37c4.898-4.957 8.15-8.936 9.752-11.934 1.633-3.028 2.45-5.76 2.45-8.194 0-2.523-.847-4.601-2.539-6.234-1.662-1.663-3.815-2.494-6.457-2.494-2.672 0-4.898.995-6.68 2.984-1.78 1.989-2.73 4.69-2.85 8.104z" fill="#525252"/></svg>