<svg width="98" height="70" fill="none" xmlns="http://www.w3.org/2000/svg"><path opacity=".05" d="M23.338.847c4.78 0 8.892 1.173 12.335 3.518 3.474 2.345 6.146 5.937 8.016 10.776 1.9 4.81 2.85 11.52 2.85 20.129 0 8.698-.965 15.467-2.895 20.306-1.9 4.839-4.467 8.401-7.703 10.687-3.236 2.256-7.318 3.385-12.247 3.385-4.928 0-9.069-1.143-12.424-3.43-3.354-2.285-5.982-5.759-7.882-10.42-1.9-4.66-2.85-11.296-2.85-19.905 0-12.024 1.856-20.737 5.567-26.14C10.23 3.816 15.975.847 23.338.847zm.312 11.845c-2.108 0-3.978.683-5.61 2.049-1.634 1.336-2.88 3.651-3.742 6.947-.86 3.295-1.291 8.119-1.291 14.472 0 8.283.98 14.013 2.94 17.19 1.988 3.146 4.556 4.72 7.703 4.72 3.028 0 5.433-1.5 7.214-4.498 2.167-3.622 3.25-9.678 3.25-18.169 0-8.61-.979-14.547-2.938-17.812-1.93-3.266-4.438-4.899-7.526-4.899zm43.706 5.967H55.378c.623-4.839 2.36-8.728 5.21-11.667C64.566 2.895 69.568.847 75.595.847c5.373 0 9.87 1.707 13.493 5.121 3.651 3.414 5.477 7.466 5.477 12.157 0 2.91-.801 5.566-2.405 7.971-1.573 2.405-3.874 4.35-6.902 5.834 3.978 1.187 7.08 3.265 9.307 6.234 2.256 2.94 3.385 6.413 3.385 10.42 0 5.878-2.168 10.866-6.502 14.963-4.334 4.067-9.856 6.1-16.566 6.1-6.353 0-11.533-1.914-15.541-5.744-4.008-3.86-6.205-9.1-6.59-15.72h12.334c.535 3.385 1.708 5.908 3.518 7.57 1.841 1.634 4.157 2.45 6.947 2.45 2.91 0 5.314-.935 7.214-2.805 1.93-1.87 2.895-4.157 2.895-6.858 0-2.969-1.291-5.477-3.874-7.526-2.583-2.048-6.309-3.102-11.178-3.162V27.165c2.999-.238 5.225-.698 6.68-1.38 1.484-.713 2.627-1.678 3.429-2.895.831-1.217 1.247-2.509 1.247-3.874 0-1.782-.624-3.251-1.87-4.409-1.247-1.188-2.88-1.781-4.899-1.781-1.781 0-3.4.549-4.854 1.647a8.017 8.017 0 00-2.984 4.186z" fill="#525252"/></svg>