<svg width="97" height="70" fill="none" xmlns="http://www.w3.org/2000/svg"><path opacity=".05" d="M23.338.847c4.78 0 8.892 1.173 12.335 3.518 3.474 2.345 6.146 5.937 8.016 10.776 1.9 4.81 2.85 11.52 2.85 20.129 0 8.698-.965 15.467-2.895 20.306-1.9 4.839-4.467 8.401-7.703 10.687-3.236 2.256-7.318 3.385-12.247 3.385-4.928 0-9.069-1.143-12.424-3.43-3.354-2.285-5.982-5.759-7.882-10.42-1.9-4.66-2.85-11.296-2.85-19.905 0-12.024 1.856-20.737 5.567-26.14C10.23 3.816 15.975.847 23.338.847zm.312 11.845c-2.108 0-3.978.683-5.61 2.049-1.634 1.336-2.88 3.651-3.742 6.947-.86 3.295-1.291 8.119-1.291 14.472 0 8.283.98 14.013 2.94 17.19 1.988 3.146 4.556 4.72 7.703 4.72 3.028 0 5.433-1.5 7.214-4.498 2.167-3.622 3.25-9.678 3.25-18.169 0-8.61-.979-14.547-2.938-17.812-1.93-3.266-4.438-4.899-7.526-4.899zM65.264 2.495h30.682v11.489H74.57l-2.672 11.934c.742-.208 1.47-.356 2.182-.445a12.462 12.462 0 012.048-.178c5.938 0 10.866 2.033 14.785 6.1 3.948 4.038 5.922 9.218 5.922 15.542 0 6.383-2.182 11.77-6.546 16.165-4.334 4.364-9.619 6.546-15.853 6.546-5.581 0-10.376-1.589-14.384-4.765-4.007-3.177-6.635-7.526-7.882-13.048h13.093c1.009 2.049 2.33 3.607 3.963 4.676 1.662 1.039 3.488 1.558 5.477 1.558 2.761 0 5.106-.994 7.036-2.983 1.93-1.99 2.895-4.542 2.895-7.66 0-3.028-.906-5.507-2.717-7.436-1.781-1.96-3.948-2.94-6.501-2.94-1.366 0-2.717.342-4.053 1.025-1.306.683-2.597 1.707-3.874 3.073l-10.153-2.271 7.927-36.382z" fill="#525252"/></svg>