<svg width="213" height="181" viewBox="0 0 213 181" fill="none" xmlns="http://www.w3.org/2000/svg">
<path opacity="0.15" d="M81.4701 180.431H0.423179V135.727C0.423179 107.639 3.85373 83.4106 10.7148 63.0417C17.7904 42.4583 29.5829 21.4462 46.0925 0.00519335L77.6107 24.7695C69.6775 36.3476 63.7813 46.3177 59.9219 54.6797C56.2769 63.0417 52.6319 74.191 48.987 88.1276H81.4701V180.431ZM212.689 180.431H131.642V135.727C131.642 107.639 135.072 83.4106 141.934 63.0417C148.795 42.4583 160.587 21.4462 177.311 0.00519335L208.829 24.7695C200.896 36.3476 195 46.3177 191.141 54.6797C187.496 63.0417 183.851 74.191 180.206 88.1276H212.689V180.431Z" fill="#F4F4F4"/>
</svg>
