<svg width="1948" height="141" viewBox="0 0 1948 141" fill="none" xmlns="http://www.w3.org/2000/svg">
<g opacity="0.5">
<path d="M1316.92 140.739L1294.34 59.4348L1266.12 118.565L1228.5 59.4348L1205.92 85.3044L1175.83 63.1304C1149.49 100.087 1147.61 100.087 1145.73 101.935L1138.2 105.63L1109.98 61.2826L1083.65 98.2391L1053.55 61.2826L1025.33 118.565L1004.64 66.8261L987.705 100.087L967.012 74.2174L980.18 63.1304L983.943 68.6739L1006.52 24.3261L1027.21 76.0652L1049.78 29.8696L1081.77 68.6739L1109.98 29.8696L1141.96 77.913C1147.61 70.5217 1157.01 55.7391 1166.42 44.6522L1172.06 37.2609L1204.04 61.2826L1232.26 29.8696L1264.24 81.6087L1298.1 7.69565L1318.8 85.3044L1339.49 35.413L1360.18 76.0652L1382.76 4L1397.81 77.913L1427.91 22.4783L1459.89 77.913L1486.22 35.413L1518.2 77.913L1559.59 35.413L1584.05 68.6739L1614.15 40.9565L1642.36 63.1304L1666.82 42.8043L1702.56 79.7609L1740.19 31.7174L1768.4 76.0652L1792.86 35.413L1817.32 64.9783L1836.13 33.5652L1858.7 61.2826L1883.16 35.413L1898.21 68.6739L1918.9 37.2609L1947.12 66.8261L1933.95 77.913L1922.66 63.1304L1896.33 103.783L1879.4 64.9783L1858.7 87.1522L1838.01 63.1304L1819.2 94.5435L1794.74 64.9783L1768.4 109.326L1738.31 63.1304L1702.56 107.478L1664.94 66.8261L1642.36 85.3044L1614.15 63.1304L1580.28 94.5435L1555.83 63.1304L1514.44 107.478L1486.22 68.6739L1458.01 113.022L1427.91 61.2826L1390.28 131.5L1379 77.913L1365.83 124.109L1341.37 77.913L1316.92 140.739Z" fill="url(#paint0_linear)" fill-opacity="0.15"/>
</g>
<g opacity="0.5">
<path d="M350.341 136.739L327.767 55.4348L299.549 114.565L261.925 55.4348L239.35 81.3044L209.251 59.1304C182.914 96.087 181.033 96.087 179.152 97.9348L171.627 101.63L143.409 57.2826L117.072 94.2391L86.9728 57.2826L58.7548 114.565L38.0616 62.8261L21.1307 96.087L0.4375 70.2174L13.6059 59.1304L17.3683 64.6739L39.9428 20.3261L60.636 72.0652L83.2104 25.8696L115.191 64.6739L143.409 25.8696L175.389 73.913C181.033 66.5217 190.439 51.7391 199.845 40.6522L205.489 33.2609L237.469 57.2826L265.687 25.8696L297.668 77.6087L331.529 3.69565L352.222 81.3044L372.916 31.413L393.609 72.0652L416.183 0L431.233 73.913L461.332 18.4783L493.313 73.913L519.649 31.413L551.63 73.913L593.016 31.413L617.472 64.6739L647.571 36.9565L675.789 59.1304L700.245 38.8043L735.988 75.7609L773.612 27.7174L801.83 72.0652L826.286 31.413L850.741 60.9783L869.553 29.5652L892.128 57.2826L916.583 31.413L931.633 64.6739L952.326 33.2609L980.544 62.8261L967.376 73.913L956.089 59.1304L929.752 99.7826L912.821 60.9783L892.128 83.1522L871.434 59.1304L852.622 90.5435L828.167 60.9783L801.83 105.326L771.731 59.1304L735.988 103.478L698.364 62.8261L675.789 81.3044L647.571 59.1304L613.71 90.5435L589.254 59.1304L547.867 103.478L519.649 64.6739L491.431 109.022L461.332 57.2826L423.708 127.5L412.421 73.913L399.252 120.109L374.797 73.913L350.341 136.739Z" fill="url(#paint1_linear)" fill-opacity="0.3"/>
</g>
<defs>
<linearGradient id="paint0_linear" x1="1457.07" y1="4" x2="1457.07" y2="140.739" gradientUnits="userSpaceOnUse">
<stop stop-color="#FED031"/>
<stop offset="1" stop-color="#DC3708"/>
</linearGradient>
<linearGradient id="paint1_linear" x1="490.491" y1="0" x2="490.491" y2="136.739" gradientUnits="userSpaceOnUse">
<stop stop-color="#FED031"/>
<stop offset="1" stop-color="#DC3708"/>
</linearGradient>
</defs>
</svg>
