<svg width="28" height="28" viewBox="0 0 28 28" fill="none" xmlns="http://www.w3.org/2000/svg">
<path d="M14 0C6.28062 0 0 6.28008 0 14C0 21.7199 6.28062 28 14 28C21.7194 28 28 21.7199 28 14C28 6.28008 21.7194 0 14 0ZM14 26.9231C6.87454 26.9231 1.07692 21.1255 1.07692 14C1.07692 6.87454 6.87454 1.07692 14 1.07692C21.1255 1.07692 26.9231 6.87454 26.9231 14C26.9231 21.1255 21.1255 26.9231 14 26.9231Z" fill="#F4F4F4"/>
<path d="M20.5972 8.25785L12.3216 17.5679L7.33597 13.5795C7.10443 13.3937 6.76466 13.4319 6.57943 13.6635C6.39366 13.8961 6.43135 14.2348 6.66343 14.4205L12.048 18.7282C12.1471 18.8074 12.2661 18.8462 12.3846 18.8462C12.5332 18.8462 12.6813 18.7848 12.7874 18.6652L21.4027 8.97293C21.6004 8.75108 21.5804 8.41024 21.358 8.21316C21.1351 8.01501 20.7954 8.03493 20.5972 8.25785Z" fill="#F4F4F4"/>
</svg>
