<svg width="57" height="57" viewBox="0 0 57 57" fill="none" xmlns="http://www.w3.org/2000/svg">
<path d="M4.91357 9.8276V20.2448C4.91357 36.0545 14.1279 50.4136 28.4998 57C42.8717 50.4136 52.086 36.0545 52.086 20.2448V9.8276C44.4667 9.8256 37.0881 7.1555 31.2319 2.28L28.4998 0L25.7677 2.28C19.9115 7.1555 12.5329 9.8256 4.91357 9.8276Z" fill="#4398D1"/>
<path d="M40.0277 7.5083C36.5782 28.6376 26.6523 41.5314 17.208 49.246C20.5022 52.4557 24.3212 55.0777 28.4999 57C42.8718 50.4136 52.0861 36.0545 52.0861 20.2448V9.8276C47.9556 9.82459 43.8643 9.03739 40.0277 7.5083Z" fill="#3E8CC7"/>
<path d="M32.4312 27.5173V21.6206C32.4312 19.4497 30.6711 17.6897 28.5002 17.6897C26.3293 17.6897 24.5692 19.4497 24.5692 21.6206V27.5173H20.6382V21.6206C20.6382 17.2789 24.1584 13.7585 28.5003 13.7585C32.8421 13.7585 36.3624 17.2787 36.3624 21.6206V27.5173H32.4312Z" fill="#E5E5E5"/>
<path d="M20.6377 27.5173H24.5687V22.8787C23.2901 23.5136 21.9781 24.0786 20.6377 24.569V27.5173Z" fill="#D6D6D6"/>
<path d="M33.8952 15.9109C33.0245 16.8996 32.082 17.8233 31.0747 18.6725C31.9307 19.4145 32.425 20.4886 32.4309 21.6208V27.5174H36.3619V21.6208C36.36 19.4596 35.4677 17.3938 33.8952 15.9109Z" fill="#D6D6D6"/>
<path d="M39.3106 25.5518H17.6899V43.2415H39.3106V25.5518Z" fill="#FDB62F"/>
<path d="M39.3106 25.5518H17.6899V43.2415H39.3106V25.5518Z" fill="#FDB62F"/>
<path d="M39.3105 43.2415H17.6899C23.8223 39.3104 33.1781 39.3104 39.3105 43.2415Z" fill="#FFA230"/>
<path d="M29.4821 34.3965H27.5166V39.3103H29.4821V34.3965Z" fill="#126099"/>
<path d="M28.4997 35.3792C29.5852 35.3792 30.4652 34.4993 30.4652 33.4137C30.4652 32.3282 29.5852 31.4482 28.4997 31.4482C27.4142 31.4482 26.5342 32.3282 26.5342 33.4137C26.5342 34.4993 27.4142 35.3792 28.4997 35.3792Z" fill="#126099"/>
<path d="M17.6899 25.5515H39.3106C33.1781 29.4826 23.8223 29.4826 17.6899 25.5515Z" fill="#FDC353"/>
<path d="M12.7759 22.6032C12.7759 19.8898 14.9763 17.6894 17.6897 17.6894C14.9763 17.6894 12.7759 15.489 12.7759 12.7756" fill="#FDC353"/>
<path d="M12.7761 12.7766C12.7761 15.49 10.5757 17.6904 7.8623 17.6904C10.5757 17.6904 12.7761 19.8908 12.7761 22.6042" fill="#FDC353"/>
</svg>
