<svg width="69" height="69" fill="none" xmlns="http://www.w3.org/2000/svg"><path d="M11.86 37.734h8.624v9.703H11.86v-9.703z" fill="#FFA912"/><path d="M25.732 47.765l-6.326-1.406v-8.625h-6.468v8.625L6.61 47.765a4.313 4.313 0 00-3.377 4.21v13.79H29.11v-13.79a4.312 4.312 0 00-3.377-4.21z" fill="#FEC9A3"/><path d="M19.406 44.409v-6.675h-6.468v6.675a6.432 6.432 0 006.468 0z" fill="#FEB784"/><path d="M22.64 33.422v3.234a6.469 6.469 0 11-12.937 0v-3.234a6.469 6.469 0 0112.938 0z" fill="#FEC9A3"/><path d="M22.64 33.422v3.234a6.468 6.468 0 01-5.38 6.377 7.767 7.767 0 001.948-5.157v-5.674a7.767 7.767 0 00-1.949-5.157 6.47 6.47 0 015.381 6.377z" fill="#FEC093"/><path d="M25.732 47.765l-5.627-1.25-3.933 12.782-3.933-12.782-5.628 1.25a4.313 4.313 0 00-3.377 4.21v13.79H29.11v-13.79a4.312 4.312 0 00-3.377-4.21z" fill="#425B82"/><path d="M10.781 65.766H8.625v-1.672c-2.515-2.383-2.88-5.958-.82-8.682l1.72 1.3c-1.464 1.937-1.108 4.431.866 6.067a1.078 1.078 0 01.39.83v2.157zm12.938 0h-2.157v-2.157a1.078 1.078 0 01.391-.83c1.974-1.636 2.33-4.13.866-6.066l1.72-1.3c2.06 2.723 1.695 6.298-.82 8.68v1.673z" fill="#3C5174"/><path d="M12.241 46.54l-3.616 4.132 3.234 2.156-1.078 2.156 5.39 4.313-3.93-12.758zm7.862 0l3.616 4.132-3.235 2.156 1.078 2.156-5.39 4.313 3.93-12.758z" fill="#49648E"/><path d="M24.797 32.344v10.781a4.312 4.312 0 01-4.313 4.313v-17.25l-4.312-2.157-4.313 2.157v17.25a4.313 4.313 0 01-4.312-4.313V32.344a8.625 8.625 0 1117.25 0z" fill="#FFB531"/><path d="M17.25 23.785v4.785l-1.078-.539-1.078.54v-4.786a8.828 8.828 0 012.156 0z" fill="#F7A116"/><path d="M54.984 46.36v-8.626H46.36v8.625l-5.358 1.34a4.313 4.313 0 00-3.267 4.184v13.883H63.61V51.883a4.313 4.313 0 00-3.266-4.184l-5.359-1.34z" fill="#FEC9A3"/><path d="M54.984 46.36l-4.312 2.156-4.313-2.157-5.358 1.34a4.313 4.313 0 00-3.267 4.184v13.883H63.61V51.883a4.313 4.313 0 00-3.266-4.184l-5.359-1.34z" fill="#C7C7C5"/><path d="M54.984 43.624v-5.89H46.36v5.89a6.44 6.44 0 008.625 0z" fill="#FEB784"/><path d="M60.343 47.699l-5.359-1.34-4.312 17.25-4.313-17.25-5.358 1.34a4.313 4.313 0 00-3.267 4.184v13.883H63.61V51.883a4.313 4.313 0 00-3.266-4.184z" fill="#425B82"/><path d="M57.14 33.422v3.234a6.468 6.468 0 11-12.937 0v-3.234a6.469 6.469 0 0112.938 0z" fill="#FEC9A3"/><path d="M42.047 54.984h2.156v10.782h-2.156V54.984zm15.093 0h2.157v10.782H57.14V54.984z" fill="#3C5174"/><path d="M57.14 33.422v3.234a6.467 6.467 0 01-6.267 6.465 8.406 8.406 0 002.607-6.096v-6.129a8.401 8.401 0 00-.82-3.632 6.475 6.475 0 014.48 6.158z" fill="#FEC093"/><path d="M57.14 30.188a4.312 4.312 0 00-4.312-4.313h-4.312a4.313 4.313 0 00-4.313 4.313v2.425l.863-.485c.942-.53 1.797-2.274 2.371-3.019a5.831 5.831 0 006.47 0c.591 1.042 1.26 3.044 2.371 3.758l.863.555V30.65a3.133 3.133 0 00-.054-.462h.054z" fill="#F98500"/><path d="M54.984 46.36l3.235 4.312-3.235 2.156 1.078 2.156-5.39 8.625 4.312-17.25zm-8.624 0l-3.235 4.312 3.234 2.156-1.078 2.156 5.39 8.625-4.312-17.25z" fill="#49648E"/><path d="M50.672 48.516l-4.313-2.157 1.483 5.93 2.83-3.773zm4.312-2.156l-4.312 2.156 2.83 3.773 1.482-5.93z" fill="#E0E0DE"/><path d="M11.86 33.422h2.156v2.156h-2.157v-2.156zm6.468 0h2.156v2.156h-2.156v-2.156zm28.032 0h2.156v2.156h-2.157v-2.156zm6.468 0h2.156v2.156h-2.156v-2.156z" fill="#7A432A"/><path d="M38.813 42.047v-8.625h-8.626v8.625l-7.314 1.463a4.312 4.312 0 00-3.467 4.229v18.027h30.188V47.739a4.312 4.312 0 00-3.467-4.23l-7.315-1.462z" fill="#FEC9A3"/><path d="M38.813 39.61v-6.188h-8.626v6.188a7.524 7.524 0 008.625 0z" fill="#FEB784"/><path d="M38.813 42.047L34.5 46.359l-4.313-4.312-7.314 1.463a4.312 4.312 0 00-3.467 4.229v18.027h30.188V47.739a4.312 4.312 0 00-3.467-4.23l-7.315-1.462z" fill="#E0E0DE"/><path d="M34.5 46.36l-4.313-5.391-2.803 1.639 3.881 6.986 3.235-3.235zm0 0l4.313-5.391 2.803 1.639-3.882 6.986-3.234-3.235z" fill="#EBEBE9"/><path d="M46.716 43.682c-7.49 12.571-20.558 17.976-27.31 20.384v1.7h30.188V47.738a4.306 4.306 0 00-2.878-4.056z" fill="#D6D6D4"/><path d="M32.344 48.516v17.25h4.312v-17.25L34.5 46.359l-2.156 2.157z" fill="#348FD9"/><path d="M42.047 25.875v5.39a7.547 7.547 0 11-15.094 0v-5.39a7.546 7.546 0 1115.094 0z" fill="#FEC9A3"/><path d="M42.047 25.875v5.39a7.547 7.547 0 01-8.547 7.481 9.66 9.66 0 003.865-7.735v-7.038a9.625 9.625 0 00-1.761-5.564 7.547 7.547 0 016.443 7.466z" fill="#FEC093"/><path d="M27.816 25.228l-.863.647v-3.234a4.313 4.313 0 014.313-4.313 8.625 8.625 0 01-3.45 6.9zm13.368-.092l.863.739v-3.697c0-2.722-1.93-4.928-4.313-4.928 0 3.103 1.279 6.024 3.45 7.886z" fill="#95573A"/><path d="M26.953 16.172h9.703a5.39 5.39 0 015.39 5.39H30.189a3.234 3.234 0 01-3.235-3.234v-2.156z" fill="#8F4D2E"/><path d="M30.188 26.953h2.156v2.156h-2.157v-2.156zm6.468 0h2.157v2.156h-2.157v-2.156z" fill="#7A432A"/><path d="M24.797 50.672h2.156v15.094h-2.156V50.672zm17.25 0h2.156v15.094h-2.156V50.672z" fill="#BFBFBD"/><path d="M34.5 46.36l-2.156 2.156v2.156l2.156-2.156 2.156 2.156v-2.156L34.5 46.359z" fill="#3086CD"/></svg>