<svg width="57" height="57" fill="none" xmlns="http://www.w3.org/2000/svg"><path d="M4.914 9.828v10.417A40.43 40.43 0 0028.5 57a40.43 40.43 0 0023.586-36.755V9.828A32.607 32.607 0 0131.232 2.28L28.5 0l-2.732 2.28A32.607 32.607 0 014.914 9.828z" fill="#4398D1"/><path d="M40.028 7.508c-3.45 21.13-13.376 34.023-22.82 41.738A40.335 40.335 0 0028.5 57a40.43 40.43 0 0023.586-36.755V9.828a32.632 32.632 0 01-12.058-2.32z" fill="#3E8CC7"/><path d="M32.431 27.517v-5.896a3.931 3.931 0 00-7.862 0v5.896h-3.93v-5.896a7.863 7.863 0 0115.723 0v5.896h-3.93z" fill="#E5E5E5"/><path d="M20.638 27.517h3.93V22.88c-1.278.635-2.59 1.2-3.93 1.69v2.948zM33.895 15.91a26.639 26.639 0 01-2.82 2.762 3.929 3.929 0 011.356 2.949v5.896h3.93v-5.896a7.859 7.859 0 00-2.466-5.71z" fill="#D6D6D6"/><path d="M39.31 25.552H17.69v17.69h21.62v-17.69z" fill="#FDB62F"/><path d="M39.31 25.552H17.69v17.69h21.62v-17.69z" fill="#FDB62F"/><path d="M39.31 43.242H17.69c6.132-3.932 15.488-3.932 21.62 0z" fill="#FFA230"/><path d="M29.482 34.397h-1.965v4.913h1.965v-4.913z" fill="#126099"/><path d="M28.5 35.38a1.965 1.965 0 100-3.932 1.965 1.965 0 000 3.931z" fill="#126099"/><path d="M17.69 25.552h21.62c-6.132 3.93-15.488 3.93-21.62 0zm-4.914-2.949c0-2.713 2.2-4.914 4.914-4.914a4.914 4.914 0 01-4.914-4.913m0 .001c0 2.713-2.2 4.913-4.914 4.913 2.714 0 4.914 2.2 4.914 4.914" fill="#FDC353"/></svg>