<svg width="55" height="55" fill="none" xmlns="http://www.w3.org/2000/svg"><g clip-path="url(#clip0)"><path d="M51.679 15.695L41.752 5.75v39.854h13.285V23.77c0-3.032-1.209-5.938-3.358-8.075z" fill="#FFB782"/><path d="M7.759 38.343L.255 18.86a3.795 3.795 0 012.177-4.905L37.852.312a3.795 3.795 0 014.906 2.178l7.504 19.481a3.795 3.795 0 01-2.178 4.906L12.665 40.52a3.797 3.797 0 01-4.906-2.178z" fill="#DE4C3C"/><path d="M45.462 9.507L2.993 25.97l2.828 7.34 42.471-16.453-2.83-7.349z" fill="#7A4930"/><path d="M.001 24.727V3.852c0-2.097 1.7-3.796 3.796-3.796h37.956c2.096 0 3.796 1.7 3.796 3.796v20.875c0 2.097-1.7 3.796-3.796 3.796H3.797A3.796 3.796 0 010 24.727z" fill="#4398D1"/><path d="M41.752.056H37.72L9.252 28.523h32.5c2.096 0 3.796-1.7 3.796-3.796V3.852c0-2.097-1.7-3.796-3.796-3.796z" fill="#3E8CC7"/><path d="M3.796 15.238h3.796v1.898H3.796v-1.898zm0 5.694h3.796v1.898H3.796v-1.898zm17.081 0h3.795v1.898h-3.796v-1.898zM9.49 15.238h3.795v1.898H9.49v-1.898zm5.693 0h3.796v1.898h-3.796v-1.898zm5.694 0h3.795v1.898h-3.796v-1.898zM38.905 3.852h1.898v2.846h-1.898V3.852zm-3.795 0h1.898v2.846H35.11V3.852zm-3.796 0h1.898v2.846h-1.898V3.852zm-3.795 0h1.898v2.846h-1.898V3.852z" fill="#5EB3D1"/><path d="M37.956 45.603h17.08v9.49h-17.08v-9.49z" fill="#88B337"/><path d="M35.172 17.198a4.114 4.114 0 00-5.94 5.689l7.776 8.483a12.797 12.797 0 00.259 13.13l.69 1.103h12.336V32.32L35.172 17.198z" fill="#FFB782"/><path d="M40.803 48.45h1.898v1.898h-1.898V48.45z" fill="#6B962A"/><path d="M3.796 9.925V5.37c0-.839.68-1.518 1.519-1.518h4.554c.84 0 1.518.679 1.518 1.518v4.555c0 .838-.679 1.518-1.518 1.518H5.315c-.84 0-1.519-.68-1.519-1.518z" fill="#FDB62F"/><path d="M3.796 6.698h2.847v1.898H3.796V6.698zm4.744 0h2.847v1.898H8.54V6.698z" fill="#FD7B2F"/><path d="M49.344 32.319a.947.947 0 01-.671-.278l-3.796-3.796a.948.948 0 011.342-1.342l3.796 3.796a.95.95 0 01-.671 1.62z" fill="#F2A46F"/></g><defs><clipPath id="clip0"><path fill="#fff" d="M0 0h55v55H0z"/></clipPath></defs></svg>