<svg width="100" height="54" fill="none" xmlns="http://www.w3.org/2000/svg"><path d="M70.757 49.072c-1.823 0-3.015-.493-3.716-1.55-1.613-2.463.49-7.18 2.594-12.18 1.754-4.083 3.577-8.307 2.946-10.63-1.403-4.928-7.504-3.31-7.784-3.239l-.21-.704c.07 0 7.082-1.9 8.625 3.732.701 2.534-1.052 6.688-3.016 11.053-1.893 4.717-3.927 9.505-2.524 11.617.561.774 1.543 1.197 3.085 1.197v.704z" fill="#0055A6"/><path d="M65.428 19.854h-1.333v1.408h1.333v-1.408z" fill="#0095EB"/><path d="M65.428 21.192h-1.333V22.6h1.333v-1.408z" fill="#0069CC"/><path d="M72.09 47.382h-1.333v1.408h1.333v-1.408z" fill="#0095EB"/><path d="M72.09 48.72h-1.333v1.408h1.333V48.72z" fill="#0069CC"/><path d="M85.835 43.58H71.739v10.35h14.096V43.58z" fill="#0069CC"/><path d="M100 43.58H85.905v10.35H100V43.58z" fill="#0055A6"/><path d="M99.088 44.496H72.721v8.518h26.367v-8.518z" fill="#0095EB"/><path d="M86.325 48.86a2.37 2.37 0 002.385 2.394v-4.787a2.37 2.37 0 00-2.385 2.394z" fill="#0055A6"/><path d="M88.71 46.467v4.787a2.37 2.37 0 002.384-2.393c0-1.338-1.122-2.394-2.384-2.394zm-2.034 2.393c0 1.127.911 1.972 1.963 1.972v-4.013c-1.052.07-1.963.915-1.963 2.042z" fill="#0069CC"/><path d="M88.71 46.89v4.012a1.964 1.964 0 001.963-1.971c0-1.197-.912-2.042-1.963-2.042zm-8.766 1.97a2.37 2.37 0 002.384 2.394v-4.787c-1.262 0-2.384 1.056-2.384 2.394z" fill="#0055A6"/><path d="M82.328 46.467v4.787a2.37 2.37 0 002.384-2.393 2.37 2.37 0 00-2.384-2.394zm-1.963 2.393c0 1.127.911 1.972 1.963 1.972v-4.013c-1.052.07-1.963.915-1.963 2.042z" fill="#0069CC"/><path d="M82.328 46.89v4.012a1.964 1.964 0 001.964-1.971c.07-1.197-.842-2.042-1.964-2.042zm-8.485 1.97a2.37 2.37 0 002.384 2.394v-4.787a2.37 2.37 0 00-2.384 2.394z" fill="#0055A6"/><path d="M76.227 46.467v4.787a2.37 2.37 0 002.384-2.393c0-1.338-1.122-2.394-2.384-2.394zm-2.034 2.393c0 1.127.912 1.972 1.964 1.972v-4.013c-1.052.07-1.964.915-1.964 2.042z" fill="#0069CC"/><path d="M76.227 46.89v4.012a1.964 1.964 0 001.964-1.971c0-1.197-.912-2.042-1.964-2.042z" fill="#0055A6"/><path d="M95.231 50.761H93.83l-.912.916h3.366v-2.253l-1.052 1.337z" fill="#BF201F"/><path d="M94.88 49.424h-1.963v2.253l.912-.916h1.402l1.052-1.337H94.88z" fill="#FF4B4A"/><path d="M96.073 49.635h-2.946v1.83h2.946v-1.83z" fill="#F22F2E"/><path d="M95.231 47.1H93.83l-.912.846h3.366v-2.183L95.231 47.1z" fill="#BF201F"/><path d="M94.88 45.763h-1.963v2.183l.912-.845h1.402l1.052-1.338H94.88z" fill="#FF4B4A"/><path d="M96.073 45.974h-2.946v1.83h2.946v-1.83z" fill="#F22F2E"/><path d="M73.703 52.38c0-.21-.14-.351-.35-.351-.211 0-.352.14-.352.352 0 .211.14.352.351.352.14 0 .35-.141.35-.352zm0-7.25c0-.212-.14-.353-.35-.353-.211 0-.352.14-.352.352 0 .211.14.352.351.352.14 0 .35-.14.35-.352zm25.035 7.25c0-.21-.14-.351-.35-.351-.211 0-.351.14-.351.352 0 .211.14.352.35.352.21 0 .35-.141.35-.352zm0-7.25c0-.212-.14-.353-.35-.353-.211 0-.351.14-.351.352 0 .211.14.352.35.352.21 0 .35-.14.35-.352zM22.3 32.175L20.267 52.24h11.921V32.175H22.3z" fill="#0055A6"/><path d="M42.146 32.175h-9.958V52.24h11.921l-1.963-20.065z" fill="#00498F"/><path d="M32.188 52.24H17.392V54h14.796v-1.76z" fill="#0069CC"/><path d="M46.985 52.24H32.188V54h14.797v-1.76z" fill="#0055A6"/><path d="M61.5 0H2.876C1.332 0 0 1.338 0 2.887V40.13a2.894 2.894 0 002.875 2.887h29.313v-3.168H61.5c1.613 0 2.875-1.338 2.875-2.887V2.887C64.376 1.337 63.114 0 61.5 0z" fill="#0069CC"/><path d="M61.5 0H32.189v43.017h29.313c1.613 0 2.875-1.338 2.875-2.887V2.887C64.376 1.337 63.114 0 61.5 0z" fill="#0055A6"/><path d="M4.068 2.605a1.74 1.74 0 00-1.754 1.76v33.16c0 .986.772 1.76 1.754 1.76h28.12V2.606H4.068z" fill="#fff"/><path d="M60.309 2.605H32.188v36.68h28.12a1.74 1.74 0 001.754-1.76V4.365a1.74 1.74 0 00-1.753-1.76z" fill="#E8E8E8"/><path d="M61.992 11.828h-2.805c-.14 0-.28.07-.28.211l-1.544 2.605-2.454-6.407a.386.386 0 00-.35-.211.385.385 0 00-.351.211l-2.174 4.647-.772-2.535c-.07-.14-.21-.281-.35-.281-.21 0-.28.07-.351.21l-2.454 7.323L44.81 5.773c-.07-.14-.21-.282-.35-.282-.141 0-.281.07-.352.282l-2.664 8.66-1.964-6.266c-.07-.141-.21-.282-.35-.282-.14 0-.281.141-.351.282l-2.314 8.096-1.754-8.519c0-.14-.14-.281-.35-.281-.14 0-.28.07-.35.211l-1.403 4.083h-7.925c-.14 0-.28.141-.35.282l-1.122 4.365L21.529 6.9c0-.141-.14-.282-.35-.282-.141 0-.351.07-.351.282l-2.244 7.322-1.613-3.732a.385.385 0 00-.351-.211c-.14 0-.28.07-.35.211l-1.123 2.323-1.683-4.576a.386.386 0 00-.35-.211c-.14 0-.28.07-.351.282l-1.683 5.069L9.677 5.21c0-.211-.14-.282-.35-.282-.21 0-.35.141-.35.352L7.643 16.404 5.75 8.378c-.07-.14-.21-.282-.35-.282-.14 0-.28.07-.35.282l-.983 3.52H2.384c-.21 0-.35.141-.35.352s.14.352.35.352h1.964c.14 0 .28-.14.35-.281L5.4 9.927l2.033 8.59c.07.14.21.28.351.28.14 0 .28-.14.35-.351L9.398 7.744l1.332 7.04c0 .142.14.282.351.282.14 0 .28-.07.35-.281l1.824-5.421 1.613 4.365c.07.14.14.211.35.211.14 0 .28-.07.351-.211l1.192-2.394 1.683 3.872c.07.141.21.211.35.211.141 0 .281-.14.352-.281l2.103-6.83 1.683 9.716c0 .141.14.282.35.282.141 0 .352-.14.352-.282l1.472-5.702h7.924c.14 0 .281-.07.351-.212l1.052-3.097 1.753 8.589c0 .14.14.282.35.282.141 0 .281-.07.351-.282l2.455-8.378 1.963 6.195c.07.141.14.282.351.282.14 0 .28-.07.35-.282L44.6 6.9l3.086 12.039c.07.14.21.281.35.281.14 0 .281-.07.351-.21l2.525-7.393.7 2.393c.071.141.141.212.352.282.14 0 .28-.07.35-.211l2.244-4.717 2.455 6.336c.07.14.14.211.28.211s.28-.07.35-.21l1.824-3.099h2.665l-.14-.774c.07 0 0 0 0 0z" fill="#0069CC"/><path d="M61.992 30.978h-1.964c-.14 0-.28.14-.35.281l-.772 2.676-1.683-4.929a.385.385 0 00-.35-.21c-.14 0-.28.07-.351.21l-1.262 3.38-1.613-3.732a.386.386 0 00-.35-.21c-.141 0-.281.07-.351.28l-1.754 5.351-1.612-5.42c-.07-.141-.14-.212-.351-.282-.14 0-.28.07-.35.211l-1.543 3.52-1.263-5.421c-.07-.14-.21-.282-.35-.282-.14 0-.28.07-.351.282l-2.104 7.252-1.683-8.59c0-.14-.14-.281-.35-.281-.21 0-.351.14-.351.281l-1.473 5.633h-7.924c-.14 0-.21.07-.28.14l-1.263 1.76-1.753-4.153a.385.385 0 00-.35-.211c-.211 0-.281.07-.351.21l-2.244 5.422-2.034-6.407c-.07-.14-.21-.282-.35-.282-.14 0-.281.141-.351.282l-2.384 8.167-2.455-11.335c0-.14-.14-.282-.28-.282s-.28.07-.351.211l-3.436 7.604-1.122-3.59c-.07-.141-.21-.282-.35-.282a.385.385 0 00-.351.211l-2.245 6.759-1.963-8.308c-.07-.14-.14-.281-.28-.281s-.281.07-.351.21l-1.964 4.155H2.315v.704H5.19c.14 0 .28-.07.35-.211l1.543-3.38 2.034 8.519c.07.14.14.282.35.282.14 0 .28-.07.351-.212l2.314-6.829 1.052 3.45c.07.14.14.211.35.282.14 0 .281-.07.351-.212l3.437-7.462 2.524 11.687c0 .14.14.281.35.281.14 0 .281-.07.351-.281l2.455-8.378 1.963 6.195c.07.141.21.211.35.282.141 0 .281-.07.351-.211l2.315-5.633 1.683 3.943c.07.14.14.211.28.211s.28-.07.35-.14l1.544-2.113h8.064c.14 0 .28-.14.35-.281l1.123-4.436 1.683 8.449c0 .14.14.281.35.281.14 0 .351-.07.351-.281l2.104-7.393 1.192 5.07c.07.14.14.28.35.28.14 0 .281-.07.351-.21l1.613-3.591 1.683 5.562c.07.14.21.282.35.282.211 0 .281-.07.351-.282l1.824-5.492 1.613 3.732c.07.14.21.211.35.211.14 0 .28-.07.35-.211l1.263-3.38 1.753 5.14c.07.14.21.211.351.211.14 0 .28-.14.35-.281l.982-3.52h1.753l-.35-.634c.07 0 0 0 0 0z" fill="#FF4140"/><path d="M61.22 20.699l-1.402 2.112-.982-2.112-1.473 1.619-1.402-1.76-1.122 1.971-1.613-1.83-1.543 2.605-1.823-2.816-2.314 2.957-2.244-2.324-1.543 1.267-1.753-1.408-1.964 1.83-1.612-2.11-2.665 2.745-1.963-2.675-1.683 2.676-1.964-3.45-1.963 3.66-.842-4.435-1.262 4.295-1.332-2.605-1.333 3.238-1.332-4.928-2.034 4.436-2.104-3.38-1.683 1.972-2.033-1.479-.21.423c-.632.915-1.333 1.9-1.684 2.323l-1.963-3.098-1.753 2.464-2.034-2.464-1.473 3.027-1.332-3.308-1.332 2.675-.21-.211v1.126l.35.422 1.122-2.252 1.332 3.309 1.683-3.52 1.894 2.323 1.683-2.324 1.823 2.887.28-.211c.07-.07.21-.141 1.964-2.535l1.964 1.479 1.472-1.69 2.314 3.661 1.753-3.872 1.403 5.069 1.613-3.802 1.473 2.816.911-3.168.701 3.52 2.315-4.294 1.893 3.308 1.753-2.816 1.823 2.464 2.665-2.745 1.543 2.112 2.104-1.971 1.683 1.337 1.472-1.197 2.385 2.464 2.244-2.816 1.893 2.887 1.613-2.746 1.613 1.83 1.122-1.83 1.333 1.55 1.332-1.409 1.052 2.323 1.613-2.464.7.704v-1.056l-.91-.774z" fill="#3A9E32"/></svg>