<svg width="1973" height="235" fill="none" xmlns="http://www.w3.org/2000/svg"><path d="M750.6 232.826c-3.762 0-7.525-1.848-7.525-5.543L694.164 49.891l-39.505 125.652c-1.882 3.696-3.763 5.544-7.525 5.544-3.763 0-7.525-1.848-7.525-5.544L611.391 85l-37.624 123.804c-1.881 3.696-5.644 5.544-9.406 5.544-3.762 0-7.525-3.696-7.525-7.391L526.737 81.304l-13.169 38.805c-1.881 3.695-3.762 5.543-7.524 5.543H380.003l-22.574 88.696c-1.882 3.696-5.644 7.391-9.406 5.543-3.763 0-7.525-3.695-7.525-7.391L314.161 70.217l-30.099 97.935c-1.882 3.696-3.763 5.544-7.525 5.544-3.763 0-7.525-1.848-9.406-5.544l-24.456-55.435-16.931 33.261c-1.881 3.696-3.762 5.544-7.524 5.544-3.763 0-5.644-1.848-7.525-5.544l-26.337-62.826-26.337 79.457c-1.881 3.695-5.644 5.543-9.406 5.543-3.762 0-7.525-3.695-7.525-7.391l-16.931-94.24-18.812 151.522c0 3.696-3.762 7.392-7.524 7.392-3.763 0-7.525-1.848-9.406-7.392L56.436 92.391 48.91 120.11c-1.88 3.695-3.762 7.391-9.406 7.391H9.406C3.762 127.5 0 123.804 0 118.261c0-3.696 3.762-7.391 9.406-7.391h24.456l15.05-53.587c1.88-3.696 5.643-5.544 9.405-5.544 3.763 0 7.525 3.696 7.525 7.391L92.18 170 110.991 9.24c1.881-5.544 5.644-9.24 9.406-9.24 5.644 0 7.525 3.696 9.406 7.391l22.574 118.261 22.575-70.217c1.881-3.696 3.762-5.544 7.525-5.544 3.762 0 7.525 1.848 7.525 5.544l24.455 66.522 15.05-31.413c1.881-3.696 5.643-3.696 7.525-5.544 3.762 0 5.643 1.848 7.524 5.543l22.575 51.74 33.861-109.022c1.882-3.696 5.644-5.544 9.406-5.544 3.763 0 7.525 3.696 7.525 7.392l24.456 138.587 15.05-55.435c5.643-5.544 9.406-7.391 13.168-7.391h127.922l22.574-62.827c1.881-3.695 5.644-5.543 9.406-5.543 3.763 0 7.525 3.696 7.525 7.391l26.337 123.805 35.743-118.261c1.881-3.696 3.762-5.544 7.525-5.544 3.762 0 7.524 1.848 7.524 5.544l28.218 90.543 39.506-127.5c1.881-3.695 3.762-5.543 7.525-5.543 3.762 0 7.524 1.848 7.524 5.543l50.793 179.239 37.624-107.174c1.881-3.695 3.762-5.543 7.525-5.543 3.762 0 7.524 1.848 7.524 5.543l11.288 33.261 31.98-66.521c1.881-3.696 5.644-5.544 7.525-5.544 3.762 0 7.525 1.848 7.525 5.544l37.624 96.087 22.574-36.957c5.644-5.543 7.525-5.543 11.287-5.543h45.149c5.644 0 9.406 3.695 9.406 9.239 0 5.543-3.762 9.239-9.406 9.239h-41.386l-28.218 48.043c-1.881 3.696-5.644 3.696-7.525 3.696-3.762 0-5.644-1.848-7.525-5.544l-37.624-94.239-31.98 66.522c-1.881 3.696-5.644 5.544-9.406 5.544-3.763 0-7.525-1.848-7.525-5.544l-9.406-29.565-37.624 109.022c-1.881 3.695-3.763 5.543-7.525 5.543z" fill="url(#paint0_linear)" fill-opacity=".3" opacity=".5"/><path d="M1737.6 234.826c-3.77 0-7.53-1.848-7.53-5.543l-48.91-177.392-39.51 125.652c-1.88 3.696-3.76 5.544-7.52 5.544s-7.52-1.848-7.52-5.544L1598.39 87l-37.63 123.804c-1.88 3.696-5.64 5.544-9.4 5.544-3.77 0-7.53-3.696-7.53-7.391l-30.1-125.653-13.17 38.805c-1.88 3.695-3.76 5.543-7.52 5.543H1367l-22.58 88.696c-1.88 3.696-5.64 7.391-9.4 5.543-3.76 0-7.53-3.695-7.53-7.391l-26.33-142.283-30.1 97.935c-1.88 3.696-3.76 5.544-7.53 5.544-3.76 0-7.52-1.848-9.4-5.544l-24.46-55.435-16.93 33.261c-1.88 3.696-3.76 5.544-7.52 5.544-3.77 0-5.65-1.848-7.53-5.544l-26.34-62.826-26.33 79.457c-1.88 3.695-5.65 5.543-9.41 5.543s-7.52-3.695-7.52-7.391l-16.93-94.24-18.82 151.522c0 3.696-3.76 7.392-7.52 7.392s-7.53-1.848-9.41-7.392l-31.98-125.652-7.52 27.718c-1.88 3.695-3.77 7.391-9.41 7.391h-30.098c-5.644 0-9.406-3.696-9.406-9.239 0-3.696 3.762-7.391 9.406-7.391h24.458l15.05-53.587c1.88-3.696 5.64-5.544 9.4-5.544 3.77 0 7.53 3.696 7.53 7.391L1079.18 172l18.81-160.76c1.88-5.544 5.64-9.24 9.4-9.24 5.65 0 7.53 3.696 9.41 7.391l22.57 118.261 22.58-70.217c1.88-3.696 3.76-5.544 7.52-5.544 3.77 0 7.53 1.848 7.53 5.544l24.45 66.522 15.05-31.413c1.88-3.696 5.65-3.696 7.53-5.544 3.76 0 5.64 1.848 7.52 5.543l22.58 51.74 33.86-109.022c1.88-3.696 5.64-5.544 9.4-5.544 3.77 0 7.53 3.696 7.53 7.392l24.46 138.587 15.04-55.435c5.65-5.544 9.41-7.391 13.17-7.391h127.92l22.58-62.827c1.88-3.695 5.64-5.543 9.41-5.543 3.76 0 7.52 3.696 7.52 7.391l26.34 123.805 35.74-118.261c1.88-3.696 3.76-5.544 7.52-5.544 3.77 0 7.53 1.848 7.53 5.544l28.22 90.543 39.5-127.5c1.88-3.695 3.77-5.543 7.53-5.543 3.76 0 7.52 1.848 7.52 5.543l50.79 179.239 37.63-107.174c1.88-3.695 3.76-5.543 7.52-5.543 3.77 0 7.53 1.848 7.53 5.543l11.29 33.261 31.98-66.521c1.88-3.696 5.64-5.544 7.52-5.544 3.76 0 7.53 1.848 7.53 5.544l37.62 96.087 22.57-36.957c5.65-5.543 7.53-5.543 11.29-5.543h45.15c5.64 0 9.41 3.695 9.41 9.239 0 5.543-3.77 9.239-9.41 9.239h-41.39l-28.21 48.043c-1.89 3.696-5.65 3.696-7.53 3.696-3.76 0-5.64-1.848-7.52-5.544l-37.63-94.239-31.98 66.522c-1.88 3.696-5.64 5.544-9.4 5.544-3.77 0-7.53-1.848-7.53-5.544l-9.41-29.565-37.62 109.022c-1.88 3.695-3.76 5.543-7.52 5.543z" fill="url(#paint1_linear)" fill-opacity=".3" opacity=".5"/><defs><linearGradient id="paint0_linear" x1="492.875" y1="0" x2="492.875" y2="232.826" gradientUnits="userSpaceOnUse"><stop stop-color="#FED031"/><stop offset="1" stop-color="#DC3708"/></linearGradient><linearGradient id="paint1_linear" x1="1479.87" y1="2" x2="1479.87" y2="234.826" gradientUnits="userSpaceOnUse"><stop stop-color="#FED031"/><stop offset="1" stop-color="#DC3708"/></linearGradient></defs></svg>