<svg width="1948" height="141" fill="none" xmlns="http://www.w3.org/2000/svg"><path d="M1316.92 140.739l-22.58-81.304-28.22 59.13-37.62-59.13-22.58 25.87-30.09-22.175c-26.34 36.957-28.22 36.957-30.1 38.805l-7.53 3.695-28.22-44.347-26.33 36.956-30.1-36.956-28.22 57.282-20.69-51.739-16.935 33.261-20.693-25.87L980.18 63.13l3.763 5.544 22.577-44.348 20.69 51.74 22.57-46.196 31.99 38.804 28.21-38.804 31.98 48.043c5.65-7.391 15.05-22.174 24.46-33.26l5.64-7.392 31.98 24.022 28.22-31.413 31.98 51.739 33.86-73.913 20.7 77.608 20.69-49.891 20.69 40.652L1382.76 4l15.05 73.913 30.1-55.435 31.98 55.435 26.33-42.5 31.98 42.5 41.39-42.5 24.46 33.26 30.1-27.717 28.21 22.174 24.46-20.326 35.74 36.957 37.63-48.044 28.21 44.348 24.46-40.652 24.46 29.565 18.81-31.413 22.57 27.718 24.46-25.87 15.05 33.26 20.69-31.412 28.22 29.565-13.17 11.087-11.29-14.783-26.33 40.653-16.93-38.805-20.7 22.174-20.69-24.022-18.81 31.413-24.46-29.565-26.34 44.348-30.09-46.196-35.75 44.348-37.62-40.652-22.58 18.478-28.21-22.174-33.87 31.413-24.45-31.413-41.39 44.348-28.22-38.804-28.21 44.348-30.1-51.74-37.63 70.218L1379 77.913l-13.17 46.196-24.46-46.196-24.45 62.826z" fill="url(#paint0_linear)" fill-opacity=".15" opacity=".5"/><path d="M350.341 136.739l-22.574-81.304-28.218 59.13-37.624-59.13-22.575 25.87-30.099-22.175c-26.337 36.957-28.218 36.957-30.099 38.805l-7.525 3.695-28.218-44.347-26.337 36.956-30.1-36.956-28.217 57.282-20.693-51.739L21.13 96.087.437 70.217l13.17-11.087 3.762 5.544 22.575-44.348 20.693 51.74L83.21 25.87l31.981 38.804 28.218-38.804 31.98 48.043c5.644-7.391 15.05-22.174 24.456-33.26l5.644-7.392 31.98 24.022 28.218-31.413 31.981 51.739 33.861-73.913 20.693 77.608 20.694-49.891 20.693 40.652L416.183 0l15.05 73.913 30.099-55.435 31.981 55.435 26.336-42.5 31.981 42.5 41.386-42.5 24.456 33.26 30.099-27.717 28.218 22.174 24.456-20.326 35.743 36.957 37.624-48.044 28.218 44.348 24.456-40.652 24.455 29.565 18.812-31.413 22.575 27.718 24.455-25.87 15.05 33.26 20.693-31.412 28.218 29.565-13.168 11.087-11.287-14.783-26.337 40.653-16.931-38.805-20.693 22.174-20.694-24.022-18.812 31.413-24.455-29.565-26.337 44.348-30.099-46.196-35.743 44.348-37.624-40.652-22.575 18.478-28.218-22.174-33.861 31.413-24.456-31.413-41.387 44.348-28.218-38.804-28.218 44.348-30.099-51.74-37.624 70.218-11.287-53.587-13.169 46.196-24.455-46.196-24.456 62.826z" fill="url(#paint1_linear)" fill-opacity=".3" opacity=".5"/><defs><linearGradient id="paint0_linear" x1="1457.07" y1="4" x2="1457.07" y2="140.739" gradientUnits="userSpaceOnUse"><stop stop-color="#FED031"/><stop offset="1" stop-color="#DC3708"/></linearGradient><linearGradient id="paint1_linear" x1="490.491" y1="0" x2="490.491" y2="136.739" gradientUnits="userSpaceOnUse"><stop stop-color="#FED031"/><stop offset="1" stop-color="#DC3708"/></linearGradient></defs></svg>