<svg width="35" height="35" viewBox="0 0 35 35" fill="none" xmlns="http://www.w3.org/2000/svg">
<rect width="35" height="35" rx="17.5" transform="matrix(1 0 0 -1 0 35)" fill="white"/>
<mask id="path-2-inside-1" fill="white">
<path d="M8.19744 13L7 14.1806L17.4017 24.4363L18 25L18.5983 24.4363L29 14.1806L27.8034 13.0008L18 20.5L8.19744 13Z"/>
</mask>
<path d="M8.19744 13L7 14.1806L17.4017 24.4363L18 25L18.5983 24.4363L29 14.1806L27.8034 13.0008L18 20.5L8.19744 13Z" fill="url(#paint0_linear)"/>
<path d="M8.19744 13L20.3505 -2.88409L6.539 -13.4513L-5.8444 -1.24172L8.19744 13ZM7 14.1806L-7.04184 -0.0610838L-21.4863 14.1806L-7.04184 28.4224L7 14.1806ZM17.4017 24.4363L3.35985 38.6781L3.52183 38.8378L3.6874 38.9938L17.4017 24.4363ZM18 25L4.28571 39.5574L18 52.4774L31.7143 39.5574L18 25ZM18.5983 24.4363L32.3126 38.9938L32.4782 38.8378L32.6401 38.6781L18.5983 24.4363ZM29 14.1806L43.0418 28.4224L57.4863 14.1806L43.0418 -0.0610838L29 14.1806ZM27.8034 13.0008L41.8452 -1.2409L29.463 -13.4493L15.6519 -2.8844L27.8034 13.0008ZM18 20.5L5.84698 36.3841L17.9988 45.6815L30.1515 36.3852L18 20.5ZM-5.8444 -1.24172L-7.04184 -0.0610838L21.0418 28.4224L22.2393 27.2417L-5.8444 -1.24172ZM-7.04184 28.4224L3.35985 38.6781L31.4435 10.1946L21.0418 -0.0610847L-7.04184 28.4224ZM3.6874 38.9938L4.28571 39.5574L31.7143 10.4426L31.116 9.87894L3.6874 38.9938ZM31.7143 39.5574L32.3126 38.9938L4.88401 9.87894L4.28571 10.4426L31.7143 39.5574ZM32.6401 38.6781L43.0418 28.4224L14.9582 -0.0610847L4.55646 10.1946L32.6401 38.6781ZM43.0418 -0.0610838L41.8452 -1.2409L13.7615 27.2425L14.9582 28.4224L43.0418 -0.0610838ZM15.6519 -2.8844L5.84847 4.61478L30.1515 36.3852L39.9549 28.886L15.6519 -2.8844ZM30.153 4.61591L20.3505 -2.88409L-3.95557 28.8841L5.84698 36.3841L30.153 4.61591Z" fill="#D92C04" mask="url(#path-2-inside-1)"/>
<defs>
<linearGradient id="paint0_linear" x1="18" y1="9.5" x2="18" y2="28" gradientUnits="userSpaceOnUse">
<stop stop-color="#D92C04"/>
<stop offset="1" stop-color="#FF532C"/>
</linearGradient>
</defs>
</svg>
