<svg width="213" height="181" fill="none" xmlns="http://www.w3.org/2000/svg"><path opacity=".15" d="M81.47 180.431H.423v-44.704c0-28.088 3.43-52.316 10.292-72.685C17.79 42.458 29.583 21.446 46.093.005L77.61 24.77c-7.934 11.578-13.83 21.548-17.69 29.91-3.644 8.362-7.29 19.511-10.934 33.448H81.47v92.303zm131.219 0h-81.047v-44.704c0-28.088 3.43-52.316 10.292-72.685 6.861-20.584 18.653-41.596 35.377-63.037l31.518 24.765C200.896 36.347 195 46.317 191.141 54.68c-3.645 8.362-7.29 19.511-10.935 33.448h32.483v92.303z" fill="#F4F4F4"/></svg>