<svg width="26" height="21" fill="none" xmlns="http://www.w3.org/2000/svg"><path d="M26 2.486c-.967.422-1.997.701-3.071.837A5.275 5.275 0 0025.274.394a10.69 10.69 0 01-3.38 1.283A5.356 5.356 0 0018 0c-2.95 0-5.327 2.381-5.327 5.3 0 .42.036.824.124 1.208A15.117 15.117 0 011.81.966a5.31 5.31 0 00-.73 2.678 5.3 5.3 0 002.368 4.404 5.288 5.288 0 01-2.408-.653v.058c0 2.575 1.848 4.714 4.27 5.207a5.35 5.35 0 01-1.397.174c-.341 0-.686-.02-1.01-.09a5.377 5.377 0 004.981 3.69 10.75 10.75 0 01-6.608 2.26c-.438 0-.857-.018-1.276-.072A15.071 15.071 0 008.177 21c9.808 0 15.171-8.077 15.171-15.078 0-.234-.008-.46-.02-.685A10.6 10.6 0 0026 2.487z" fill="#03A9F4"/></svg>