<svg width="539" height="141" fill="none" xmlns="http://www.w3.org/2000/svg"><path opacity=".3" d="M204.55 20.768l-52.979 78.696-18.344-22.858H5.807C2.62 76.606 0 75.398 0 73.93c0-1.47 2.62-2.678 5.808-2.678h131.527c.213 0 .354 0 .567.033h.071c.211 0 .354 0 .424.032l.567.098c.141.033.354.066.567.066.071.032.141.032.282.065a.485.485 0 00.214.033l.141.032c.141.033.283.066.354.098.212.066.354.098.425.13.141.033.284.099.425.164.141.065.213.13.284.163.07.033.141.098.212.13.07.034.142.066.212.132v.032c.071.066.142.098.212.164.071.032.071.065.143.098.07.032.07.065.141.13l.071.032 7.932 9.96L206.463 0l57.866 121.212 60.203-82.093 25.57 46.043 20.185-27.43 17.566 20.572 10.411-6.008.142-.065.141-.066.425-.196c.142-.065.284-.098.425-.163.071-.032.142-.032.213-.065.071-.033.212-.066.283-.098l.425-.098c.07-.033.142-.033.213-.065.07-.033.212-.033.283-.066.212 0 .354-.032.496-.065h.071c.212-.033.354-.033.495-.065h131.319c3.178 0 5.805 1.208 5.805 2.677 0 1.437-2.627 2.678-5.805 2.678H405.559l-21.106 12.147-13.316-15.576-22.523 30.63-25.64-46.042L261.992 141 204.55 20.768z" fill="#fff"/></svg>