<svg width="28" height="16" fill="none" xmlns="http://www.w3.org/2000/svg"><path d="M24.098 10.152c.929.907 1.91 1.76 2.742 2.759.368.443.716.901.983 1.416.378.732.036 1.537-.62 1.58l-4.08-.001c-1.052.087-1.891-.336-2.597-1.056-.564-.575-1.088-1.187-1.63-1.782a3.866 3.866 0 00-.735-.652c-.556-.362-1.04-.251-1.358.33-.324.59-.398 1.244-.43 1.903-.043.96-.334 1.213-1.298 1.257-2.062.097-4.02-.215-5.837-1.255-1.603-.917-2.846-2.212-3.928-3.677C3.204 8.12 1.591 4.984.141 1.76-.185 1.034.054.644.855.63 2.185.604 3.516.606 4.85.628c.54.008.899.319 1.107.83.72 1.77 1.601 3.454 2.707 5.015.295.416.595.831 1.022 1.124.473.324.834.217 1.056-.31.141-.335.203-.694.235-1.052.105-1.231.12-2.46-.066-3.687-.113-.766-.544-1.262-1.308-1.407-.39-.074-.332-.219-.143-.441.327-.384.636-.623 1.25-.623h4.61c.726.143.888.47.987 1.2l.004 5.12c-.008.283.141 1.122.65 1.31.408.132.676-.194.921-.452 1.104-1.172 1.892-2.556 2.595-3.99.313-.63.581-1.285.841-1.939.193-.485.496-.724 1.043-.713l4.437.004c.131 0 .264.002.392.023.747.128.952.45.721 1.18-.364 1.145-1.072 2.1-1.764 3.058-.74 1.024-1.531 2.013-2.265 3.043-.674.94-.62 1.415.217 2.231z" fill="#436EAB"/></svg>