<svg width="319" height="319" viewBox="0 0 319 319" fill="none" xmlns="http://www.w3.org/2000/svg">
<path d="M264.076 138.238L290.24 137.883L292.28 288.328L266.116 288.682L264.076 138.238Z" fill="#FF6E40"/>
<path d="M225.45 184.557L251.614 184.203L253.033 288.86L226.869 289.215L225.45 184.557Z" fill="#FF6E40"/>
<path d="M185.76 152.384L211.925 152.03L213.787 289.392L187.623 289.747L185.76 152.384Z" fill="#FF6E40"/>
<path d="M147.046 192.163L173.21 191.808L174.54 289.924L148.376 290.279L147.046 192.163Z" fill="#FF6E40"/>
<path d="M108.065 212.318L134.23 211.963L135.294 290.456L109.13 290.811L108.065 212.318Z" fill="#FF6E40"/>
<path d="M68.6416 199.768L94.8059 199.413L96.0475 290.988L69.8832 291.343L68.6416 199.768Z" fill="#FF6E40"/>
<path d="M29.75 226.464L55.9143 226.11L56.8011 291.52L30.6369 291.875L29.75 226.464Z" fill="#FF6E40"/>
<path d="M263.682 60.3909L224.323 100.832L197.804 75.0228L133.28 141.32L100.131 109.059L33.0267 178.008L51.59 196.075L100.628 145.688L133.777 177.95L198.301 111.653L224.82 137.462L282.246 78.4575L263.682 60.3909Z" fill="#E65100"/>
<path d="M289.084 52.8494L230.214 53.6476L289.882 111.719L289.084 52.8494Z" fill="#E65100"/>
</svg>
