<svg width="319" height="319" fill="none" xmlns="http://www.w3.org/2000/svg"><path d="M264.076 138.238l26.164-.355 2.04 150.445-26.164.354-2.04-150.444zm-38.626 46.319l26.164-.354 1.419 104.657-26.164.355-1.419-104.658zm-39.69-32.173l26.165-.354 1.862 137.362-26.164.355-1.863-137.363zm-38.714 39.779l26.164-.355 1.33 98.116-26.164.355-1.33-98.116zm-38.981 20.155l26.165-.355 1.064 78.493-26.164.355-1.065-78.493zm-39.423-12.55l26.164-.355 1.242 91.575-26.165.355-1.241-91.575zM29.75 226.464l26.164-.354.887 65.41-26.164.355-.887-65.411z" fill="#FF6E40"/><path d="M263.682 60.39l-39.359 40.442-26.519-25.81-64.524 66.298-33.149-32.261-67.104 68.949 18.563 18.067 49.038-50.387 33.149 32.262 64.524-66.297 26.519 25.809 57.426-59.004-18.564-18.067z" fill="#E65100"/><path d="M289.084 52.85l-58.87.798 59.668 58.071-.798-58.87z" fill="#E65100"/></svg>