<svg width="87" height="98" fill="none" xmlns="http://www.w3.org/2000/svg"><path d="M81.432 25.223L76.56 51.488c-.232 1.504.696 2.892 2.204 3.24l5.916-31.703c-1.508-.232-2.9.694-3.248 2.198z" fill="#FBBF8D"/><path d="M84.68 23.025l-5.916 31.702c1.508.232 2.9-.694 3.248-2.198l4.872-26.264c.348-1.505-.696-3.009-2.204-3.24z" fill="#F0B07A"/><path d="M81.896 25.686l-.348 1.62 2.204.463.696-3.818c-1.16-.348-2.32.462-2.552 1.735z" fill="#FBCFAB"/><path d="M86.304 26.496c.232-1.157-.58-2.43-1.74-2.661l-.696 3.818 2.204.463.232-1.62zM73.196 13.19l-3.712 32.86c-.232 1.85 1.16 3.586 3.016 3.818l4.524-39.57c-1.856-.348-3.596 1.04-3.828 2.892z" fill="#FBBF8D"/><path d="M77.024 10.182L72.5 49.752c1.856.231 3.596-1.157 3.828-3.008L80.04 14c.232-1.851-1.16-3.587-3.016-3.818z" fill="#F0B07A"/><path d="M73.776 13.653l-.232 2.082 2.784.348.58-4.744a2.75 2.75 0 00-3.132 2.314z" fill="#FBCFAB"/><path d="M79.345 14.347c.232-1.504-.928-2.892-2.436-3.008l-.58 4.744 2.784.347.232-2.083zM58.696 69.653s2.088-6.248 1.856-10.066c-.232-4.513-.58-8.794-4.64-10.182.116 1.273.116 2.314.232 2.661-2.436-1.967-4.408-3.587-4.408-3.587s-2.436-4.396-3.016-5.785c-2.088-4.744-6.612-4.512-7.54-4.165-1.508.463-.348 2.43-.348 2.43l5.452 13.19c1.856 4.165 11.368 14.578 12.412 15.504z" fill="#FBBF8D"/><path d="M43.384 43.041c-.116-2.082-.58-3.586-3.016-3.24h-.116c.116.58.348 1.158.348 1.158l2.088 5.09c.58-.925.812-1.85.696-3.008z" fill="#FBCFAB"/><path d="M61.944 7.29v38.065a3.362 3.362 0 003.364 3.356V3.934c-1.74 0-3.364 1.504-3.364 3.355z" fill="#FBBF8D"/><path d="M65.424 3.934v44.892a3.362 3.362 0 003.364-3.355V7.289a3.362 3.362 0 00-3.364-3.355z" fill="#F0B07A"/><path d="M62.64 7.636V9.72h2.784V4.975c-1.508 0-2.784 1.157-2.784 2.661z" fill="#FBCFAB"/><path d="M68.208 7.636c0-1.504-1.276-2.777-2.784-2.777v4.86h2.784V7.636zm-17.284 7.29l4.524 37.603c.232 1.851 1.392-1.62 3.248-1.851l-4.756-39.57c-1.856.231-3.248 1.967-3.016 3.818z" fill="#FBBF8D"/><path d="M53.94 11.107l4.756 39.57c1.856-.23 3.248-1.966 3.016-3.818L57.768 14c-.232-1.736-1.972-3.008-3.828-2.893z" fill="#F0B07A"/><path d="M51.62 15.273l.232 2.082 2.784-.347-.58-4.744c-1.508.116-2.552 1.505-2.436 3.009z" fill="#FBCFAB"/><path d="M54.056 12.149l.58 4.743 2.784-.347-.232-2.082c-.232-1.389-1.624-2.43-3.132-2.314zm15.08 52.644h-10.44V98h10.44V64.793z" fill="#FBBF8D"/><path d="M80.62 64.793H69.136V98H80.62V64.793z" fill="#F0B07A"/><path d="M66.7 41.653c-6.032 0-10.904 4.86-10.904 10.876v9.603c0 3.355 1.508 6.248 3.828 8.215h9.744V41.653H66.7z" fill="#FBBF8D"/><path d="M66.7 41.653c-3.016 0-6.96 1.504-8.7 4.397l.232 1.157c1.972-1.967 5.452-3.471 8.468-3.471h2.668v-2.083H66.7z" fill="#F0B07A"/><path d="M72.152 41.653h-2.784v28.694H80.04c1.392-1.851 2.9-4.165 2.9-6.595V52.297c.116-5.785-4.756-10.644-10.788-10.644z" fill="#F0B07A"/><path d="M8.7 43.504H7.54V9.372C7.54 4.165 11.716 0 16.936 0h51.272c5.22 0 9.396 4.165 9.396 9.372l-1.276 11.223-1.16-.116 1.16-11.107c0-4.513-3.712-8.1-8.236-8.1H16.936c-4.524 0-8.236 3.703-8.236 8.216v34.016z" fill="#0055A6"/><path d="M27.376 48.364h-1.16V14.23c0-5.206 4.176-9.372 9.396-9.372h9.86c5.336 0 9.048 3.703 9.396 9.372.116 1.504.812 6.017.812 6.132l-1.16.116c0-.231-.696-4.628-.812-6.248-.348-4.975-3.596-8.215-8.236-8.215h-9.86c-4.524 0-8.236 3.703-8.236 8.215v34.133z" fill="#0055A6"/><path d="M76.676 29.967l1.16-10.992-1.856-.231-1.044 10.992 1.74.231z" fill="#0069CC"/><path d="M75.98 18.744l-1.972-.232-1.392 10.992 2.32.232 1.044-10.992z" fill="#0055A6"/><path d="M75.632 22.678l-3.712-.463-.928 8.446 3.596.463 1.044-8.446z" fill="#0069CC"/><path d="M78.3 31.471l1.044-8.33-3.712-.463-1.044 8.446 3.712.347z" fill="#0055A6"/><path d="M58.116 29.851L56.724 18.86l-1.856.231 1.392 10.992 1.856-.232z" fill="#0069CC"/><path d="M54.868 19.091l-1.972.232 1.044 10.991 2.32-.231-1.392-10.992z" fill="#0055A6"/><path d="M55.332 23.025l-3.712.347 1.044 8.446 3.712-.463-1.044-8.33z" fill="#0069CC"/><path d="M59.972 30.893l-.812-8.331-3.828.463 1.044 8.33 3.596-.462z" fill="#0055A6"/><path d="M31.552 41.19H26.68v5.438h4.872V41.19z" fill="#0069CC"/><path d="M26.68 41.19h-4.292v5.438h4.292V41.19z" fill="#0095EB"/><path d="M13.108 41.19H8.236v5.438h4.872V41.19z" fill="#0069CC"/><path d="M8.236 41.19H3.944v5.438h4.292V41.19z" fill="#0095EB"/><path d="M18.676 44.545H0V68.15h18.676V44.545z" fill="#0069CC"/><path d="M37.352 44.545H18.676V68.15h18.676V44.545z" fill="#0055A6"/><path d="M36.308 45.818H1.276v21.174h35.032V45.818z" fill="#0095EB"/><path d="M31.784 47.438h-3.016v17.934h3.016V47.438z" fill="#57C2FF"/><path d="M34.8 47.438h-3.016v17.934H34.8V47.438z" fill="#36B6FF"/><path d="M27.724 47.438h-12.18v17.934h12.18V47.438z" fill="#0069CC"/><path d="M15.66 47.438H2.9v17.934h12.76V47.438z" fill="#0055A6"/><path d="M27.028 48.017H15.544v16.66h11.484v-16.66z" fill="#E8E8E8"/><path d="M15.544 48.017H3.596v16.66h11.948v-16.66z" fill="#fff"/><path d="M27.028 56.578h-5.8l-.464.579-1.044-1.967-.812 2.661-1.16-4.397-2.668 7.868-2.552-11.686-2.436 7.984-.464-.926h-5.8v.579H9.28l.812 2.198 2.32-7.52 2.552 11.57 2.668-7.984 1.16 4.397 1.044-2.893.58 1.504.928-1.157h5.684v-.81z" fill="#FF4140"/><path d="M29.464 61.9a2.324 2.324 0 002.32 2.315v-4.628a2.324 2.324 0 00-2.32 2.314z" fill="#0055A6"/><path d="M31.784 59.587v4.628a2.324 2.324 0 002.32-2.314 2.324 2.324 0 00-2.32-2.314z" fill="#0069CC"/><path d="M29.928 61.9c0 1.042.812 1.968 1.972 1.968V60.05c-1.16-.116-1.972.81-1.972 1.85z" fill="#0069CC"/><path d="M31.784 59.934v3.818c1.044 0 1.972-.81 1.972-1.967 0-.925-.928-1.851-1.972-1.851zM2.552 66.066c0-.231-.232-.463-.464-.463s-.464.232-.464.463.232.463.464.463.464-.116.464-.463zm0-19.438c0-.231-.232-.463-.464-.463s-.464.232-.464.463.232.463.464.463.464-.232.464-.463zm33.292 19.438c0-.231-.232-.463-.464-.463s-.464.232-.464.463.232.463.464.463.464-.116.464-.463zm0-19.438c0-.231-.232-.463-.464-.463s-.464.232-.464.463.232.463.464.463.464-.232.464-.463zM29.116 47.9l.348-.23.232.23v.232l-.232.116-.348-.116v-.231zm4.872 0l.232-.23.232.23v.232l-.232.116-.232-.116v-.231zm-4.872 16.662l.348-.116.232.116v.347l-.232.116-.348-.116v-.347zm4.872 0l.232-.116.232.116v.347l-.232.116-.232-.116v-.347z" fill="#0055A6"/><path d="M34.22 50.446h-4.872v1.389h4.872v-1.389z" fill="#0069CC"/><path d="M34.22 49.058h-4.872v1.388h4.872v-1.388zm-.232 1.388h-4.292v1.157h4.292v-1.157z" fill="#0055A6"/><path d="M33.988 49.405h-4.292v1.157h4.292v-1.157zm.232 4.512h-4.872v1.389h4.872v-1.389z" fill="#0069CC"/><path d="M34.22 52.529h-4.872v1.388h4.872V52.53zm-.232 1.388h-4.292v1.157h4.292v-1.157z" fill="#0055A6"/><path d="M33.988 52.876h-4.292v1.157h4.292v-1.157zm.232 4.512h-4.872v1.389h4.872v-1.389z" fill="#0069CC"/><path d="M34.22 56h-4.872v1.388h4.872V56zm-.232 1.388h-4.292v1.157h4.292v-1.157z" fill="#0055A6"/><path d="M33.988 56.347h-4.292v1.157h4.292v-1.157z" fill="#0069CC"/></svg>