<svg width="127" height="86" fill="none" xmlns="http://www.w3.org/2000/svg"><g clip-path="url(#clip0)"><path d="M126.7 68.3h-4.3v6.6h4.3v-6.6z" fill="#0095EB"/><path d="M126.7 74.9h-4.3v6.6h4.3v-6.6z" fill="#0069CC"/><path d="M126.7 32.1h-4.3v4.4h4.3v-4.4z" fill="#0095EB"/><path d="M126.7 36.5h-4.3v4.4h4.3v-4.4zm0-24.3h-4.3v4.7h4.3v-4.7z" fill="#0069CC"/><path d="M126.7 8.1h-4.3v4.1h4.3V8.1z" fill="#0095EB"/><path d="M61.8 0H0v85.2h61.8V0z" fill="#0069CC"/><path d="M123.6 0H61.8v85.2h61.8V0z" fill="#0055A6"/><path d="M61.8 4H4v77.2h57.8V4zm57.8 0H61.8v77.2h57.8V4z" fill="#0095EB"/><path d="M105.7 17.3H93.5v59.8h12.2V17.3z" fill="#57C2FF"/><path d="M117.8 17.3h-12.2v59.8h12.2V17.3z" fill="#36B6FF"/><path d="M97.7 74.3c0-.8-.6-1.5-1.5-1.5-.8 0-1.5.6-1.5 1.5 0 .8.6 1.5 1.5 1.5.8-.1 1.5-.7 1.5-1.5zm18.8 0c0-.8-.6-1.5-1.5-1.5-.8 0-1.5.6-1.5 1.5 0 .8.6 1.5 1.5 1.5.8-.1 1.5-.7 1.5-1.5z" fill="#0055A6"/><path d="M16.4 20h-3.6v54.5h3.6V20z" fill="#0069CC"/><path d="M50.8 20h-38v54.5h38V20z" fill="#fff"/><path d="M88.8 20h-38v54.5h38V20z" fill="#E8E8E8"/><path d="M13.2 10.9c0 2.8 2.2 5 5 5v-10c-2.8 0-5 2.2-5 5z" fill="#0055A6"/><path d="M18.2 5.9v10c2.8 0 5-2.2 5-5-.1-2.8-2.3-5-5-5zm-4.2 5c0 2.3 1.9 4.2 4.2 4.2V6.7c-2.3 0-4.2 1.9-4.2 4.2z" fill="#0069CC"/><path d="M18.2 6.7V15c2.3 0 4.2-1.9 4.2-4.2-.1-2.2-1.9-4.1-4.2-4.1zm12.3 4.2c0 2.8 2.2 5 5 5v-10c-2.8 0-5 2.2-5 5z" fill="#0055A6"/><path d="M35.5 5.9v10c2.8 0 5-2.2 5-5s-2.3-5-5-5zm-4.2 5c0 2.3 1.9 4.2 4.2 4.2V6.7c-2.3 0-4.2 1.9-4.2 4.2z" fill="#0069CC"/><path d="M35.5 6.7V15c2.3 0 4.2-1.9 4.2-4.2-.1-2.2-1.9-4.1-4.2-4.1zm11.9 4.2c0 2.8 2.2 5 5 5v-10c-2.7 0-5 2.2-5 5z" fill="#0055A6"/><path d="M52.4 5.9v10c2.8 0 5-2.2 5-5s-2.2-5-5-5z" fill="#0069CC"/><path d="M48.2 10.9c0 2.3 1.9 4.2 4.2 4.2V6.7c-2.3 0-4.2 1.9-4.2 4.2z" fill="#0069CC"/><path d="M52.4 6.7V15c2.3 0 4.2-1.9 4.2-4.2 0-2.2-1.9-4.1-4.2-4.1z" fill="#0055A6"/><path d="M68.3 10.9c0 1.5 1.2 2.7 2.7 2.7V8.2c-1.6 0-2.7 1.2-2.7 2.7z" fill="#fff"/><path d="M70.9 8.2v5.3c1.5 0 2.7-1.2 2.7-2.7 0-1.4-1.2-2.6-2.7-2.6z" fill="#E8E8E8"/><path d="M78.5 10.9c0 1.5 1.2 2.7 2.7 2.7V8.2c-1.5 0-2.7 1.2-2.7 2.7z" fill="#fff"/><path d="M81.1 8.2v5.3c1.5 0 2.7-1.2 2.7-2.7 0-1.4-1.2-2.6-2.7-2.6z" fill="#E8E8E8"/><path d="M88.7 10.9c0 1.5 1.2 2.7 2.7 2.7V8.2c-1.5 0-2.7 1.2-2.7 2.7z" fill="#fff"/><path d="M91.3 8.2v5.3c1.5 0 2.7-1.2 2.7-2.7 0-1.4-1.2-2.6-2.7-2.6z" fill="#E8E8E8"/><path d="M109.1 10.9c0 1.5 1.2 2.7 2.7 2.7V8.2c-1.5 0-2.7 1.2-2.7 2.7z" fill="#fff"/><path d="M111.7 8.2v5.3c1.5 0 2.7-1.2 2.7-2.7 0-1.4-1.2-2.6-2.7-2.6z" fill="#E8E8E8"/><path d="M98.9 10.9c0 1.5 1.2 2.7 2.7 2.7V8.2c-1.5 0-2.7 1.2-2.7 2.7z" fill="#fff"/><path d="M101.5 8.2v5.3c1.5 0 2.7-1.2 2.7-2.7 0-1.4-1.2-2.6-2.7-2.6z" fill="#E8E8E8"/><path d="M99.1 67.7c0 3.6 2.9 6.6 6.6 6.6V61.2c-3.7 0-6.6 2.9-6.6 6.5z" fill="#3A9E32"/><path d="M105.6 61.2v13.1c3.6 0 6.6-2.9 6.6-6.6 0-3.7-3-6.5-6.6-6.5zm-5.5 6.5c0 3 2.5 5.5 5.5 5.5v-11c-3 .1-5.5 2.5-5.5 5.5z" fill="#43B83A"/><path d="M105.6 62.3v11c3 0 5.5-2.5 5.5-5.5 0-3.1-2.4-5.5-5.5-5.5z" fill="#3A9E32"/><path d="M35.4 71.8c-.2 0-.5-.2-.5-.4l-3.4-20.8-4.2 10.6c-.1.2-.3.3-.5.3s-.4-.2-.5-.4L25 56.3 22.2 66c-.1.2-.3.4-.5.4s-.4-.2-.5-.4l-2.5-12.2-1.9 4.7c-.1.2-.3.3-.5.3h-3.6c-.3 0-.5-.2-.5-.5s.2-.5.5-.5H16l2.4-6c.1-.2.3-.3.5-.3s.4.2.4.4l2.5 11.9 2.8-9.6c.1-.2.3-.4.5-.4s.4.2.5.4l1.4 5.1 4.3-10.9c.1-.2.3-.3.5-.3s.4.2.4.4l3.2 19.8 2.8-15.1c0-.2.2-.4.5-.4.2 0 .4.1.5.4l2.5 9.2 2.8-7.8c.1-.2.3-.3.5-.3s.4.1.5.3l2.2 5.9 1.5-2.4c.1-.1.3-.2.4-.2h10l1.8-8.3c.1-.2.3-.4.5-.4s.4.2.5.4l2.1 12.3 2.6-10.4c.1-.2.3-.4.5-.4s.4.2.5.4l1.6 7.7 1.9-4.9c.1-.2.3-.3.5-.3s.4.2.5.4l2 7.7 2.2-7.6c.1-.2.2-.4.5-.4.2 0 .4.1.5.3l2 5.3 1.6-4.9c.1-.2.3-.3.5-.3s.4.1.5.4l2.1 7 .9-3.7c.1-.2.3-.4.5-.4h2.5c.3 0 .5.2.5.5s-.2.5-.5.5h-2.1l-1.2 5.1c-.1.2-.2.4-.5.4-.2 0-.4-.1-.5-.4L82 56.6l-1.6 4.8c-.1.2-.3.3-.5.3s-.4-.1-.5-.3l-2-5.2-2.1 7.8c-.1.2-.3.4-.5.4s-.4-.2-.5-.4l-2.1-8-2 5.1c-.1.2-.3.3-.5.3s-.4-.2-.4-.4l-1.5-7.2-2.7 10.6c-.1.2-.2.4-.5.4-.2 0-.4-.2-.5-.4L62 52.3l-1.4 6.2c-.1.2-.3.4-.5.4H50l-1.9 3c-.1.2-.3.3-.5.2-.2 0-.4-.1-.4-.3l-2.1-5.6-2.9 8c-.1.2-.3.3-.5.3s-.4-.2-.5-.4l-2.4-8.6-3 15.8c.1.3-.1.5-.4.5z" fill="#F22F2E"/><path d="M70.8 44.7c-.2 0-.4-.2-.5-.4l-4.1-16.9L63 39.7c-.1.2-.3.4-.5.4s-.4-.2-.5-.4l-2.4-8.9-3.1 12c-.1.2-.2.4-.5.4-.2 0-.4-.2-.5-.4l-2.2-12.4-1.3 4.3c-.1.2-.3.4-.5.4h-10l-1.8 8.3c-.1.2-.2.4-.5.4-.2 0-.4-.2-.5-.4l-2.1-13.9-2.6 9.7c-.1.2-.2.4-.5.4-.2 0-.4-.1-.5-.3l-2.1-5.5-1.5 3.2c-.1.2-.3.3-.5.3s-.4-.1-.5-.3l-2-6.2-2.2 7.7c-.1.2-.3.4-.5.4s-.4-.2-.5-.4l-1.6-10L20 43.8c0 .2-.2.4-.5.4-.2 0-.5-.2-.5-.4l-2.6-12.3-.8 3.3c-.1.2-.3.4-.5.4h-2.5c-.3 0-.5-.2-.5-.5s.2-.5.5-.5h2.1l1.2-5.1c.1-.2.3-.4.5-.4s.4.2.5.4l2.4 11.3L21 24.5c0-.2.2-.4.5-.4.2 0 .5.2.5.4L23.9 36l2.1-7.2c.1-.2.3-.4.5-.4s.4.1.5.3l2.1 6.5 1.4-3.3c.1-.2.3-.3.5-.3s.4.1.5.3l2 5.3 2.8-10.5c.1-.2.3-.4.5-.4s.4.2.5.4l2.1 13.6 1.4-6.1c.1-.2.3-.4.5-.4h10.1l1.8-6c.1-.2.3-.4.5-.4s.4.2.5.4L56.4 40l3-11.6c.1-.2.3-.4.5-.4s.4.2.5.4l2.4 8.9 3.3-12.4c.1-.2.2-.4.5-.4.2 0 .4.2.5.4l4.1 17 3.1-10.5c.1-.2.3-.4.5-.4s.4.2.5.4l1 3.6 2.7-6.6c.1-.2.3-.3.5-.3s.4.1.5.3l3.1 9.2 1.9-3.7c.1-.2.3-.3.4-.3H89c.3 0 .5.2.5.5s-.2.5-.5.5h-3.3l-2.7 5c-.1.2-.3.3-.5.3s-.4-.1-.4-.3l-3-9.1-2.8 6.7c-.1.2-.3.3-.5.3s-.4-.2-.5-.4l-.9-3.3-3.1 10.6c-.1.2-.3.3-.5.3z" fill="#0069CC"/><path d="M21.3 20v-2.7H9.2v59.8h12.1v-2.6h-8.5V20h8.5zm70.8 0v-2.7H80V20h8.5v54.5H80v2.6h12.1V20zm24.3 4.5H94.7v4.3h21.7v-4.3z" fill="#0069CC"/><path d="M116.4 20.2H94.7v4.3h21.7v-4.3zm-.9 4.3H95.6v3.4h19.9v-3.4z" fill="#0055A6"/><path d="M115.5 21.1H95.6v3.4h19.9v-3.4zm.9 16H94.7v4.3h21.7v-4.3z" fill="#0069CC"/><path d="M116.4 32.8H94.7v4.3h21.7v-4.3zm-.9 4.3H95.6v3.4h19.9v-3.4z" fill="#0055A6"/><path d="M115.5 33.7H95.6v3.4h19.9v-3.4zm-10.9 17h-9v5.9h9v-5.9z" fill="#0069CC"/><path d="M104.6 44.8h-9v5.9h9v-5.9zm-.6 5.9h-7.8v5.1h7.8v-5.1z" fill="#0055A6"/><path d="M104 45.6h-7.8v5.1h7.8v-5.1zm12.2 5.1h-9v5.9h9v-5.9z" fill="#0069CC"/><path d="M116.2 44.8h-9v5.9h9v-5.9zm-.6 5.9h-7.8v5.1h7.8v-5.1z" fill="#0055A6"/><path d="M115.6 45.6h-7.8v5.1h7.8v-5.1z" fill="#0069CC"/><path d="M7.5 79c0-.6-.5-1.1-1.1-1.1-.6 0-1.1.5-1.1 1.1 0 .6.5 1.1 1.1 1.1.5 0 1.1-.5 1.1-1.1zm0-72.7c0-.6-.5-1.1-1.1-1.1-.6 0-1.1.5-1.1 1.1 0 .6.5 1.1 1.1 1.1.5 0 1.1-.5 1.1-1.1zM118.3 79c0-.6-.5-1.1-1.1-1.1-.6 0-1.1.5-1.1 1.1 0 .6.5 1.1 1.1 1.1.6 0 1.1-.5 1.1-1.1zm0-72.7c0-.6-.5-1.1-1.1-1.1-.6 0-1.1.5-1.1 1.1 0 .6.5 1.1 1.1 1.1.6 0 1.1-.5 1.1-1.1z" fill="#0055A6"/></g><defs><clipPath id="clip0"><path fill="#fff" d="M0 0h126.7v85.2H0z"/></clipPath></defs></svg>